<svg width="512" height="512" viewBox="0 0 512 512" fill="none" xmlns="http://www.w3.org/2000/svg">
<path d="M172.011 506H133.601L165.013 327.429H203.642L172.011 506Z" fill="#F59E0B"/>
<path d="M127.359 506H6L89.9112 6H211.964L127.359 506Z" fill="#F59E0B"/>
<path d="M194.627 102.841L211.964 6H276.895C385.486 6 467.031 105.188 446.03 211.729C430.103 292.529 359.25 350.78 276.895 350.78H143.309L159.259 256.687H248.939C287.958 256.687 320.797 227.472 325.339 188.718C330.697 142.999 294.971 102.841 248.939 102.841H194.627Z" fill="#F59E0B"/>
<path d="M506 506L449.135 166.027L449.29 174.777C450.467 240.826 413.767 301.73 354.821 331.549L385.334 506H506Z" fill="#F59E0B"/>
</svg>
