<svg width="180" height="180" viewBox="0 0 180 180" fill="none" xmlns="http://www.w3.org/2000/svg">
<g clip-path="url(#clip0_4_2)">
<rect width="180" height="180" fill="#171717"/>
<path d="M64.3631 181.781H50.8596L61.9029 119.002H75.4836L64.3631 181.781Z" fill="#F59E0B"/>
<path d="M48.6653 181.781H6L35.5 6H78.4092L48.6653 181.781Z" fill="#F59E0B"/>
<path d="M72.3141 40.0455L78.4092 6H101.236C139.413 6 168.081 40.8709 160.698 78.3267C155.099 106.733 130.189 127.212 101.236 127.212H54.2728L59.8802 94.1321H91.4082C105.126 94.1321 116.671 83.8613 118.268 70.2367C120.151 54.1636 107.591 40.0455 91.4082 40.0455H72.3141Z" fill="#F59E0B"/>
<path d="M181.781 181.781L161.789 62.2597L161.844 65.3355C162.258 88.5559 149.356 109.967 128.632 120.451L139.36 181.781H181.781Z" fill="#F59E0B"/>
</g>
<defs>
<clipPath id="clip0_4_2">
<rect width="180" height="180" fill="white"/>
</clipPath>
</defs>
</svg>
